<?xml version="1.0" standalone="no"?>
<!DOCTYPE svg PUBLIC "-//W3C//DTD SVG 1.1//EN" "http://www.w3.org/Graphics/SVG/1.1/DTD/svg11.dtd" >
<!--
2013-9-30: Created.
-->
<svg>
<metadata>
Created by iconfont
</metadata>
<defs>

<font id="iconfont" horiz-adv-x="1024" >
  <font-face
    font-family="iconfont"
    font-weight="500"
    font-stretch="normal"
    units-per-em="1024"
    ascent="896"
    descent="-128"
  />
    <missing-glyph />
    
    <glyph glyph-name="x" unicode="x" horiz-adv-x="1001"
d="M281 543q-27 -1 -53 -1h-83q-18 0 -36.5 -6t-32.5 -18.5t-23 -32t-9 -45.5v-76h912v41q0 16 -0.5 30t-0.5 18q0 13 -5 29t-17 29.5t-31.5 22.5t-49.5 9h-133v-97h-438v97zM955 310v-52q0 -23 0.5 -52t0.5 -58t-10.5 -47.5t-26 -30t-33 -16t-31.5 -4.5q-14 -1 -29.5 -0.5
t-29.5 0.5h-32l-45 128h-439l-44 -128h-29h-34q-20 0 -45 1q-25 0 -41 9.5t-25.5 23t-13.5 29.5t-4 30v167h911zM163 247q-12 0 -21 -8.5t-9 -21.5t9 -21.5t21 -8.5q13 0 22 8.5t9 21.5t-9 21.5t-22 8.5zM316 123q-8 -26 -14 -48q-5 -19 -10.5 -37t-7.5 -25t-3 -15t1 -14.5
t9.5 -10.5t21.5 -4h37h67h81h80h64h36q23 0 34 12t2 38q-5 13 -9.5 30.5t-9.5 34.5q-5 19 -11 39h-368zM336 498v228q0 11 2.5 23t10 21.5t20.5 15.5t34 6h188q31 0 51.5 -14.5t20.5 -52.5v-227h-327z" />
    

    
    <glyph glyph-name="check" unicode="&#58901;" d="M414.26640592 42.02101570000002c-13.79290075 0-27.10277689 5.31327052-37.12371674 14.91065363l-285.80370963 273.71595852c-21.40842667 20.50305897-22.14267259 54.4810477-1.6384 75.88583348 20.50305897 21.40842667 54.4810477 22.14267259 75.890688 1.63961364l244.0063052-233.68681245 442.60101688 537.84545659c18.83431822 22.88905482 52.65938963 26.17435022 75.55208534 7.34124564 22.89026845-18.83431822 26.17556385-52.65938963 7.340032-75.54965808l-479.37399467-582.53372682c-9.49179733-11.534336-23.35994311-18.5915923-38.27059675-19.47511467-1.0607123-0.06310875-2.12142459-0.09466311-3.18092325-0.0946631z"  horiz-adv-x="1024" />

    
    <glyph glyph-name="shouye" unicode="&#58887;" d="M326.77178469 15.535269370000037M697.22821531 15.535269370000037M551.83402531 756.4481325M930.25726156 463.66804969L930.25726156 463.66804969 625.52697125 760.43153531l0 0c-29.87551875 27.88381781-69.70954313 45.80912906-113.52697125 45.80912906-41.82572625 0-81.65975063-15.93361031-111.53526938-43.81742718l0 0L95.73443938 465.65975063l-1e-8-1e-8c-11.9502075-9.95850656-17.92531125-23.900415-17.92531125-39.83402531 0-29.87551875 23.900415-53.77593375 53.77593375-53.77593375l0 0 0-326.63900437c0-45.80912906 35.8506225-81.65975063 81.65975063-81.65975063l169.29460594 0 0 0c29.87551875 0 53.77593375 23.900415 53.77593375 53.77593375l0 0 0 149.37759375c0 41.82572625 33.85892156 75.68464687 75.68464687 75.68464688 41.82572625 0 75.68464687-33.85892156 75.68464688-75.68464688l0-149.37759375c0-29.87551875 23.900415-53.77593375 53.77593375-53.77593375l169.29460594 0c45.80912906 0 81.65975063 35.8506225 81.65975062 81.65975063L892.41493812 370.05809156l1e-8 0c29.87551875 0 53.77593375 23.900415 53.77593375 53.77593375C946.19087094 439.76763469 940.21576719 453.70954313 930.25726156 463.66804969zM864.53112031 425.82572625L864.53112031 425.82572625 864.53112031 425.82572625C864.53112031 425.82572625 864.53112031 425.82572625 864.53112031 425.82572625L864.53112031 425.82572625c-15.93361031 0-27.88381781-11.9502075-27.88381781-27.88381781l0-338.58921188c0-23.900415-19.91701219-43.81742719-43.81742719-43.81742719l-135.43568437 0 0 0c-9.95850656 0-15.93361031 7.96680469-15.93361032 15.93361032l0 0 0 133.44398343c0 71.701245-57.75933656 129.46058063-129.46058062 129.46058063-71.701245 0-129.46058063-57.75933656-129.46058063-129.46058063l0-133.44398343 0 0c0-9.95850656-7.96680469-15.93361031-15.93361031-15.93361032l0 0L229.17842281 15.535269370000037c-23.900415 0-43.81742719 19.91701219-43.81742718 43.81742719l0 338.58921188c0 15.93361031-11.9502075 27.88381781-27.88381782 27.88381781l0 0 0 0c-5.97510375 0-9.95850656 3.98340281-9.95850656 9.95850656 0 3.98340281 1.99170094 5.97510375 3.98340281 7.96680469l0 0c0 0 199.17012469 195.18672188 284.81327813 276.84647344l0 0c19.91701219 19.91701219 45.80912906 31.86721969 75.68464687 31.86721968 29.87551875 0 55.76763469-11.9502075 75.68464688-31.86721968l0 0 282.82157719-276.84647344c1.99170094-1.99170094 3.98340281-3.98340281 3.98340281-7.96680469C874.48962687 429.80912906 870.50622406 425.82572625 864.53112031 425.82572625z"  horiz-adv-x="1024" />

    
    <glyph glyph-name="guanbi" unicode="&#59078;" d="M512 825.227966c-243.685892 0-441.227966-197.550776-441.227966-441.227966 0-243.685892 197.542074-441.227966 441.227966-441.227966S953.227966 140.31410800000003 953.227966 384C953.227966 627.67719 755.685892 825.227966 512 825.227966zM713.983275 239.746538c15.919864-15.960476 15.919864-41.780941 0-57.700805-15.948873-15.960476-41.780941-15.960476-57.729813 0L512 326.287592l-144.294074-144.241858c-15.908261-15.960476-41.740329-15.960476-57.692102 0-15.908261 15.919864-15.908261 41.740329 0 57.700805l144.28247 144.241858-144.28247 144.28247c-15.908261 15.919864-15.908261 41.751932 0 57.700805 15.948873 15.919864 41.780941 15.919864 57.692102 0l144.294074-144.28247 144.253462 144.28247c15.948873 15.919864 41.780941 15.919864 57.729813 0 15.919864-15.948873 15.919864-41.780941 0-57.700805l-144.28247-144.28247L713.983275 239.746538z"  horiz-adv-x="1024" />

    
    <glyph glyph-name="fenlei" unicode="&#59010;" d="M427.81250037-37.875l-273.6026782 0C118.87946442-37.875 90.125-9.120535580000023 90.125 26.223214239999947L90.125 299.81250036999995C90.125 335.15625019000004 118.87946442 363.9107146 154.22321424 363.9107146L427.81250037 363.9107146C463.15625019 363.9107146 491.9107146 335.15625019000004 491.9107146 299.81250036999995l0-273.58928531C491.9107146-9.120535580000023 463.15625019-37.875 427.81250037-37.875zM154.22321424 310.33928603000004C148.4241073 310.33928603000004 143.69642856 305.61160729999995 143.69642856 299.81250036999995l0-273.58928531C143.69642856 20.424107299999946 148.4241073 15.696428559999958 154.22321424 15.696428559999958L427.81250037 15.696428559999958C433.6116073 15.696428559999958 438.33928603 20.424107299999946 438.33928603 26.223214239999947L438.33928603 299.81250036999995C438.33928603 305.61160729999995 433.6116073 310.33928603000004 427.81250037 310.33928603000004L154.22321424 310.33928603000004zM427.81250037 404.0892854l-273.6026782 0C118.87946442 404.0892854 90.125 432.84374981 90.125 468.18749963l0 273.6026782C90.125 777.12053558 118.87946442 805.875 154.22321424 805.875L427.81250037 805.875C463.15625019 805.875 491.9107146 777.12053558 491.9107146 741.7767857599999L491.9107146 468.18749963C491.9107146 432.84374981 463.15625019 404.0892854 427.81250037 404.0892854zM154.22321424 752.30357144C148.4241073 752.30357144 143.69642856 747.5758926999999 143.69642856 741.7767857599999L143.69642856 468.18749963C143.69642856 462.3883927 148.4241073 457.66071397 154.22321424 457.66071397L427.81250037 457.66071397C433.6116073 457.66071397 438.33928603 462.3883927 438.33928603 468.18749963l0 273.6026782C438.33928603 747.5758926999999 433.6116073 752.30357144 427.81250037 752.30357144L154.22321424 752.30357144zM869.77678576 404.0892854L596.18749963 404.0892854C560.84374981 404.0892854 532.0892854 432.84374981 532.0892854 468.18749963l0 273.6026782C532.0892854 777.12053558 560.84374981 805.875 596.18749963 805.875l273.58928531 0C905.12053558 805.875 933.875 777.12053558 933.875 741.7767857599999L933.875 468.18749963C933.875 432.84374981 905.12053558 404.0892854 869.77678576 404.0892854zM596.18749963 752.30357144C590.3883927 752.30357144 585.66071397 747.5758926999999 585.66071397 741.7767857599999L585.66071397 468.18749963C585.66071397 462.3883927 590.3883927 457.66071397 596.18749963 457.66071397l273.58928531 0C875.5758927 457.66071397 880.30357144 462.3883927 880.30357144 468.18749963l0 273.6026782C880.30357144 747.5758926999999 875.5758927 752.30357144 869.77678576 752.30357144L596.18749963 752.30357144zM726.28571424 2.303571629999965C626.5892854 2.303571629999965 545.48214316 83.41071469999997 545.48214316 183.10714270000005S626.5892854 363.9107146 726.28571424 363.9107146 907.0892853 282.80357153 907.0892853 183.10714270000005 825.98214307 2.303571629999965 726.28571424 2.303571629999965zM726.28571424 310.33928603000004c-70.15178595 0-127.23214252-57.08035739-127.23214253-127.2321425s57.08035739-127.23214252 127.23214253-127.23214253 127.23214252 57.08035739 127.2321425 127.23214253S796.43750019 310.33928603000004 726.28571424 310.33928603000004zM872.45394272 101.61168181999994l66.96300174-66.96300174-37.8803573-37.8803573-66.96300174 66.96300175 37.8803573 37.8803573Z"  horiz-adv-x="1031" />

    
    <glyph glyph-name="bukejian" unicode="&#58993;" d="M928.25 344.625l-90 106.875c33.75 33.75 61.875 73.125 84.375 118.125 5.625 11.25 0 28.125-11.25 39.375-11.25 5.625-28.125 0-39.375-11.25C804.5 457.125 663.875 372.75 512 372.75c-151.875 0-292.5 84.375-360 219.375C146.375 609 129.5 614.625 112.625 603.375 101.375 597.75 95.75 580.875 101.375 569.625c22.5-45 50.625-78.75 84.375-112.5L95.75 350.25C84.5 339 90.125 322.125 101.375 310.875 107 305.25 112.625 305.25 118.25 305.25c5.625 0 16.875 5.625 22.5 11.25l84.375 101.25c28.125-22.5 56.25-39.375 90-56.25l-45-129.375c-5.625-16.875 0-28.125 16.875-33.75 5.625 0 5.625 0 11.25 0 11.25 0 22.5 5.625 28.125 16.875l45 129.375C405.125 327.75 444.5 322.125 483.875 316.5l0-129.375C483.875 170.25 495.125 159 512 159c16.875 0 28.125 11.25 28.125 28.125L540.125 316.5c39.375 0 78.75 11.25 118.125 22.5l45-123.75c5.625-11.25 16.875-16.875 28.125-16.875 5.625 0 5.625 0 11.25 0 16.875 5.625 22.5 22.5 16.875 33.75l-45 129.375c33.75 16.875 61.875 33.75 90 56.25l90-106.875c5.625-5.625 11.25-11.25 22.5-11.25 5.625 0 11.25 0 16.875 5.625C933.875 316.5 939.5 333.375 928.25 344.625z"  horiz-adv-x="1024" />

    
    <glyph glyph-name="weibo" unicode="&#59497;" d="M401.01875 189.12187500000005q10.546875 17.071875 5.5125 34.65t-22.6125 25.115625q-17.071875 7.03125-36.675 0.50625t-30.121875-23.090625q-11.053125-17.071875-6.525-34.396875t21.6-25.36875 37.40625-1.265625 31.3875 23.85zM448.2125 249.89999999999998q4.021875 6.525 1.771875 13.303125t-8.803125 9.28125q-7.03125 2.503125-14.315625-0.253125t-10.8-9.28125q-8.55-15.58125 6.525-22.6125 7.03125-2.503125 14.56875 0.253125t11.053125 9.28125zM535.596875 196.15312500000005q-22.6125-51.215625-79.340625-75.346875t-112.5-6.01875q-53.746875 17.071875-74.08125 63.534375t3.2625 94.1625q23.596875 46.715625 76.078125 69.80625t105.721875 9.534375q55.74375-14.56875 79.59375-60.01875t1.265625-95.68125zM692.309375 276.53437499999995q-4.528125 48.20625-44.690625 85.3875t-104.709375 54.73125-137.86875 10.546875q-111.99375-11.559375-185.56875-71.071875t-66.54375-132.834375q4.528125-48.20625 44.690625-85.3875t104.709375-54.73125 137.86875-10.546875q111.99375 11.559375 185.56875 71.071875t66.54375 132.834375zM846.996875 274.509375q0-34.14375-18.590625-70.059375t-54.73125-68.79375-84.628125-59.00625-113.5125-41.68125-135.84375-15.58125-138.121875 16.81875-120.796875 46.715625-86.146875 75.825-32.653125 100.209375q0 57.76875 34.903125 123.046875t99.196875 129.571875q84.88125 84.88125 171.50625 118.51875t123.80625-3.515625q32.653125-32.146875 10.040625-104.9625-1.996875-7.03125-0.50625-10.040625t5.034375-3.515625 7.284375 0.253125 6.778125 1.771875l3.009375 1.0125q69.80625 29.64375 123.553125 29.64375t76.8375-30.628125q22.6125-31.640625 0-89.409375-1.0125-6.525-2.25-10.040625t2.25-6.271875 6.01875-3.76875 8.55-3.009375q28.63125-9.028125 51.721875-23.596875t40.190625-40.921875 17.071875-58.5zM809.815625 587.90625q21.09375-23.596875 27.365625-54.50625t-3.2625-59.00625q-4.021875-11.559375-14.821875-17.071875t-22.359375-1.996875q-11.559375 4.021875-17.071875 14.821875t-1.996875 22.359375q10.040625 31.640625-12.065625 55.74375t-53.746875 17.578125q-12.065625-2.503125-22.6125 4.021875t-12.54375 18.590625q-2.503125 12.065625 4.021875 22.359375t18.590625 12.796875q30.121875 6.525 59.765625-2.75625t50.7375-32.90625zM900.715625 669.778125q43.70625-48.20625 56.503125-111.740625t-6.778125-121.303125q-4.528125-13.55625-17.071875-20.08125t-26.128125-1.996875-20.08125 17.071875-2.503125 26.128125q14.0625 41.175 5.034375 86.371875t-40.190625 79.340625q-31.134375 34.65-74.334375 47.953125t-86.878125 4.275q-14.0625-3.009375-26.128125 4.78125t-15.075 21.853125 4.78125 25.875 21.853125 14.821875q61.7625 13.05 122.540625-5.765625t104.45625-67.55625z"  horiz-adv-x="1024" />

    
    <glyph glyph-name="quan" unicode="&#59201;" d="M511.55014004 574.86247938c-105.15486943 0-190.40008733-85.23787148-190.4000873-190.40051945 0-105.1483873 85.24608219-190.40008733 190.4000873-190.40008733 105.14752301 0 190.40051947 85.25083577 190.40051947 190.40008733-0.00043214 105.16308013-85.25299647 190.40051947-190.40051945 190.40051945v0zM511.55014004 223.31702948999998c-88.99361861 0-161.146659 72.14310111-161.14665897 161.14449828 0 89.00442215 72.15260825 161.146659 161.14665897 161.14665898 89.00355789 0 161.14622685-72.14310111 161.14622687-161.14665898 0-89.00096502-72.14310111-161.14449829-161.14622685-161.14449828v0zM511.55014004 223.31702948999998z"  horiz-adv-x="1024" />

    
    <glyph glyph-name="sousuo" unicode="&#58967;" d="M952.85361778 5.587626669999963l0.21390222 0.21048888L780.24021333 178.61973333000003c55.07185778 69.15640889 88.03441778 156.66289778 88.03441778 251.73333334 0 223.20924445-181.59616 404.80199111-404.80426666 404.80199111S58.66723555 653.56231111 58.66723555 430.35306667c0-223.20810667 181.59388445-404.80085333 404.80199112-404.80085334 97.50641778 0 187.06773333 34.65557333 257.024 92.29425778l168.85987555-168.86442666c1.00465778-1.25952 2.06848-2.49059555 3.23697778-3.65568 16.64227555-16.64568889 43.62012445-16.64568889 60.2624 0C969.49589333-38.03477333000001 969.49589333-11.05806222000001 952.85361778 5.587626669999963zM109.80352 430.35306667c0 195.01169778 158.65400889 353.66684445 353.66684445 353.66684444s353.66912-158.65514667 353.66912-353.66684444c0-195.01056-158.65514667-353.66570667-353.66912-353.66570667S109.80352 235.34250667000003 109.80352 430.35306667z"  horiz-adv-x="1024" />

    
    <glyph glyph-name="gouwuche" unicode="&#58914;" d="M991.3263013 670.61218418c-17.30841031 25.48525397-45.88137472 40.70142635-76.43364125 40.70142635L247.77604551 711.31361053l-57.09353642 0.06985728-5.1520057 28.62768696L178.44693219 790.47985266c-2.27969024 16.23027257-16.28383005 28.46584946-32.57231814 28.46584945l-96.02756267 0c-18.14437433 0-32.90181405-14.84476189-32.90181405-33.09508721 0-18.25148928 14.75860366-33.09625117 32.90181405-33.09625117l67.44295537 0 3.17968954-22.64437418c0.05937949-0.42496797 0.12923677-0.84062094 0.20608-1.25627392l9.3946971-52.24191886c0.14670165-2.82457998 0.64734777-5.61190229 1.49844764-8.30724552l13.91798272-77.37089934c0.08732217-0.49133227 0.18861625-0.98150059 0.31319495-1.55200512l70.76236061-309.3566885c0.15135858-0.66248363 0.31901696-1.30983139 0.51229013-1.98279395 15.45368803-52.36067669 44.15123229-87.20802816 80.97788473-99.81617949-49.14838755-13.40569373-85.41967133-58.7922432-85.41967132-112.5745243 0-64.29004459 51.82742983-116.59599986 115.52950499-116.59599986 63.70673209 0 115.53532701 52.30129835 115.53532701 116.59599986 0 48.11798642-29.03169707 89.52148195-70.34903552 107.30841771l327.36949702 0c-41.31500942-17.78693575-70.34670763-59.18926734-70.34670762-107.30841771 0-64.29004459 51.82742983-116.59599986 115.535327-116.59599986 63.70673209 0 115.53299797 52.30129835 115.53299798 116.59599986 0 53.75084544-36.23286215 99.12109511-85.34399204 112.55240249 34.58421987 11.68137216 63.77775445 43.03583801 88.60518172 94.98668373 0.16300146 0.34463175 0.32483783 0.69508437 0.44243172 0.98615752l134.8207104 309.31826688c0.21539499 0.48551139 0.40983211 0.97567971 0.59728327 1.46118997C1011.73872185 614.2952322900001 1008.37507413 645.51580445 991.3263013 670.61218418L991.3263013 670.61218418zM696.16819086 65.65029661000005c0 27.79172295 22.31022137 50.40349753 49.73053497 50.40349752 27.42497053 0 49.73635584-22.60711651 49.73635584-50.40349752 0-13.46507207-5.20207019-26.13260288-14.64100978-35.67283656-9.4051749-9.50181205-21.86778965-14.7353179-35.09534606-14.7353179C718.47841337 15.246799069999952 696.16819086 37.85857365000004 696.16819086 65.65029661000005L696.16819086 65.65029661000005zM328.16130389 116.05379413000003c27.42497053 0 49.73519189-22.60711651 49.7351919-50.40349752 0-27.7928869-22.31022137-50.40349753-49.7351919-50.40349754-27.42031246 0-49.73053497 22.61060949-49.73053496 50.40349754C278.43077006 93.44201955000005 300.74099143 116.05379413000003 328.16130389 116.05379413000003L328.16130389 116.05379413000003zM939.34867797 609.27129941L805.12175787 301.30012274c-20.07361081-41.82147869-40.17982237-62.1489061-61.47012153-62.1489061L330.22559915 239.15121664000003c-12.21927709 0-34.91720875 7.3793024-49.78991332 56.78732743l-70.33622869 307.5392239-7.50388111 41.69806278 45.13739094-0.05355747 667.15969422 0c8.66817707 0 17.14075193-4.54424349 22.11112732-11.85252352C941.70986837 626.34219406 942.51788857 618.0512483499999 939.34867797 609.27129941L939.34867797 609.27129941zM939.34867797 609.27129941M760.62007296 591.26198386c-6.20918557 0-12.12846194-1.9676581-17.12561607-5.6864165L482.15446073 390.79482595l-78.48745756 92.41009835c-5.47684352 6.44553728-13.4592512 10.14915982-21.8945684 10.14915983-6.88796899 0-13.56170923-2.49624803-18.78590122-7.02419172-11.96546048-10.38085461-13.35097117-28.65912263-3.08771044-40.74450489l95.92510464-112.95292075c5.47684352-6.44670123 13.4592512-10.14915982 21.9003904-10.14915982 6.20918557 0 12.13311886 1.9676581 17.12445212 5.69223851l282.91671154 210.85965539c12.70478734 9.46571833 15.4269093 27.59379285 6.07063496 40.41151716C778.43378745 586.84232021 769.75629539 591.26198386 760.62007296 591.26198386L760.62007296 591.26198386zM760.62007296 591.26198386"  horiz-adv-x="1024" />

    
    <glyph glyph-name="weixin" unicode="&#58986;" d="M695.07607519 530.85777246c2.97684668 0 5.45755254 0 8.43439923 0C675.23043008 655.3891948200001 543.75303183 749.65600869 385.48401348 749.65600869 206.8732083 749.65600869 62 629.58985635 62 481.73980137c0-87.32083799 50.11025362-164.71885342 128.00440987-213.34068369l-32.24917354-98.23594307 115.60088232 60.529217c34.72987852-10.91510508 72.93274541-16.37265674 112.12789395-16.37265674 8.43439922 0 16.86879844 0.49614083 24.80705595 0.99228251-6.94597588 21.33406846-10.91510508 44.15656026-10.91510508 66.97905205C399.37596435 419.22602021 531.84564512 530.85777246 695.07607519 530.85777246zM496.12348408 618.17861045c23.31863261 0 42.17199521-19.3495043 42.17199522-42.66813691 0-23.81477432-18.8533626-42.66813691-42.17199522-42.66813692S453.95148799 551.6957001000001 453.95148799 575.51047442C453.95148799 598.8291070299999 472.80485146 618.17861045 496.12348408 618.17861045zM272.85997783 532.8423375c-23.31863261 0-42.17199521 19.3495043-42.17199522 42.66813691 0 23.81477432 18.8533626 42.66813691 42.17199522 42.66813692s42.17199521-19.3495043 42.17199522-42.66813692C315.03197393 551.6957001000001 296.17861045 532.8423375 272.85997783 532.8423375zM962 281.79492861999995c0 124.53142237-119.57001065 225.74421211-267.42006651 225.7442121-147.35391416 0-267.42006651-101.21278974-267.4200665-225.7442121s119.57001065-225.74421211 267.4200665-225.74421211c31.25689102 0 61.52149951 4.46527002 89.80154385 12.89966924l89.80154385-50.60639444-24.31091514 79.38257959C917.84343974 138.90628447999995 962 205.88533653000002 962 281.79492861999995zM607.75523721 319.50165381c-19.3495043 0-35.22602021 14.38809258-35.22602021 31.75303184 0 17.36493925 15.87651592 31.75303183 35.22602021 31.75303183s35.22602021-14.38809258 35.22602021-31.75303183C642.98125654 333.39360557 627.10474063 319.50165381 607.75523721 319.50165381zM782.89305401 319.50165381c-19.3495043 0-35.22602021 14.38809258-35.22602023 31.75303184 0 17.36493925 15.87651592 31.75303183 35.22602023 31.75303183s35.22602021-14.38809258 35.22602021-31.75303183C818.11907422 333.39360557 802.2425583 319.50165381 782.89305401 319.50165381z"  horiz-adv-x="1024" />

    
    <glyph glyph-name="qq" unicode="&#58894;" d="M804.50357055 222.68884277999996c0 0-20.88034058-57.30743408-59.22482299-108.82315064 0 0 68.43109131-23.43301391 62.73495483-84.20690918 0 0 2.23214722-67.83865357-146.34860229-63.18649292 0 0-104.49398804 8.15570068-135.85693359 52.61077881l-27.62786866 0c-31.3258667-44.49957276-135.81903076-52.61077881-135.81903076-52.61077881-148.67056274-4.69665528-146.30163575 63.18649292-146.30163574 63.18649292-5.78842163 60.77307128 62.68881226 84.20690918 62.68881225 84.20690918-38.29421997 51.5140686-59.22317505 108.82315063-59.22317505 108.82315064-92.91055298-150.90353393-83.61447143 21.06655883-83.61447143 21.06655883 17.41964722 101.75674438 90.59518433 168.40722656 90.59518432 168.40722657-10.44552612 92.41452026 27.85446167 108.82891846 27.85446168 108.82891845 7.97607422 285.90188599 252.52597046 280.88223266 257.63626098 280.74627686 5.14901734 0.13430786 249.60745239 5.15478516 257.67333984-280.74710083 0 0 38.34613037-16.36907959 27.8602295-108.82891846 0 0 73.12857055-66.65130615 90.54327393-168.40722657 0.0453186 0.00082398 9.29855347-171.9692688-83.56832886-21.06573485l0-1e-8 0 0z"  horiz-adv-x="1024" />

    
    <glyph glyph-name="xing" unicode="&#59056;" d="M971.401872 491.48817387c-5.05979307 15.5685952-18.552576 26.9855648-34.76986133 29.32085333l-266.74192534 38.79174933-119.35922666 241.7024352c-7.265344 14.66042667-22.185248 24.001584-38.532272 24.001584-16.34702507 0-31.266928-9.34115733-38.532272-24.001584l-119.35922667-241.7024352-266.74192533-38.79174933c-16.2172864-2.3352896-29.71006827-13.62252053-34.76986134-29.32085333-5.05979307-15.5685952-0.77842987-32.69404907 10.898016-44.11101867l193.050576-188.12052053L211.13549013-6.447384530000022c-2.72450453-16.08754773 3.89214827-32.4345728 17.12545387-42.0352064 13.2333056-9.6006336 30.7479744-10.898016 45.27866347-3.24345707l238.58871573 125.45692693 238.58871573-125.45692693c6.22743787-3.24345707 13.10356693-4.93005547 19.97969707-4.93005547 8.9519424 0 17.77414613 2.72450453 25.2989664 8.17351254 13.2333056 9.6006336 19.8499584 25.9476576 17.12545387 42.0352064l-45.53813974 265.7040192 193.050576 188.12052053C972.18030187 458.7941248 976.46166507 475.91957867 971.401872 491.48817387L971.401872 491.48817387z"  horiz-adv-x="1024" />

    
    <glyph glyph-name="xiangxia" unicode="&#58938;" d="M548.1575 149.433l396.927 396.927c19.9035 19.9035 19.9035 52.2225 0 72.1935-19.9035 19.9035-52.2225 19.9035-72.1935 0l-360.8325-360.8955-360.8955 360.9c-19.9035 19.9035-52.2225 19.9035-72.1935 0-19.9035-19.9035-19.9035-52.2225 0-72.1935l396.9945-396.9945a51.048 51.048 0 0 1 72.1935 0.063z"  horiz-adv-x="1024" />

    
    <glyph glyph-name="shouji" unicode="&#58895;" d="M517.17060547-4.125c24.54521484 0 44.54560547 20.00039062 44.54560547 45.45439453 0 24.54521484-20.00039062 44.54560547-44.54560547 44.54560547s-45.45439453-20.00039062-45.45439453-44.54560547c0.90878906-25.45400391 20.90917969-45.45439453 45.45439453-45.45439453zM729.67431641 834h-435.34863282C243.38076172 834 202.625 794.0000976599999 202.625 744v-720c0-50.00009766 40.75576172-90 91.70068359-90h435.34863282C780.61923828-66 821.375-26.00009766000005 821.375 24V744C821.375 794.0000976599999 780.61923828 834 729.67431641 834z m1.01953125-855H303.41972656c-24.54521484 0-44.54560547 20.00039062-44.54560547 45.45439453V130.875h517.27236328v-106.42060547c-0.90878906-24.54521484-20.90917969-45.45439453-45.45439453-45.45439453zM765.125 193.20439452999995H258.875v540C258.875 757.74960937 278.41484375 777.75 302.39492187 777.75h417.43388672c23.98007812 0 43.51992188-20.00039062 43.51992188-44.54560547v-540H765.125z"  horiz-adv-x="1024" />

    
    <glyph glyph-name="geren" unicode="&#58936;" d="M601.18746172-63.44323973999997H422.81765175c-169.19104131 0-302.8175499 0-302.8175499 87.75311923v17.55471445c0 164.46103506 135.86111719 298.24094883 302.8175499 298.24094884h178.3646965c166.95643271 0 302.82266338-133.77991377 302.82266337-298.24094884v-17.55471444c-0.03068086-87.75311924-140.37635479-87.75311924-302.8175499-87.75311924zM422.78697089 287.50276113999996c-137.93720625 0-250.17897305-110.17079122-250.17897303-245.60748633v-17.54960098c0-35.12477021 144.58478203-35.12477021 250.17897304-35.12476933h178.36980996c87.41051367 0 250.18408652 0 250.18408653 35.12476933v17.54960098c0 135.43669424-112.24688115 245.60748633-250.18408653 245.60748633H422.78697089z m80.28226583 70.20863173c-132.56801016 0-240.36612802 106.2640626-240.36612803 236.8838206 0 130.61464541 107.80323135 236.84802627 240.36612803 236.84802627s240.36612802-106.23338086 240.36612802-236.84802626c0-130.61975888-107.82879961-236.8838206-240.36612802-236.88382061zM315.34168555 594.59521348c0-101.56985068 84.21456357-184.24524463 187.72755117-184.24524375 103.52321542 0 187.73266552 82.64471221 187.73266552 184.24524375S606.58733867 778.80977724 503.06923672 778.80977724c-103.51298847 0-187.72755205-82.64982656-187.72755117-184.21456377z"  horiz-adv-x="1024" />

    
    <glyph glyph-name="dagou" unicode="&#59165;" d="M512 779.3c218 0 395.3-177.3 395.3-395.3S730-11.299999999999955 512-11.299999999999955 116.7 166 116.7 384 294 779.3 512 779.3m0 52.7C264.6 832 64 631.4 64 384s200.6-448 448-448 448 200.6 448 448S759.4 832 512 832zM456.1 179L213.9 421.3l37.2 37.2 205-204.9 316.8 316.7 37.2-37.2z"  horiz-adv-x="1024" />

    
    <glyph glyph-name="xiangshang" unicode="&#58880;" d="M880.101759 163.84343130000002c18.020155-17.819854 47.143649-17.819854 65.097286 0 17.953637 17.753339 17.953637 46.610574 0 64.429405L544.042085 624.2268432999999c-18.020155 17.819854-47.077131 17.819854-65.097286 0L77.787839 228.27385930000003c-17.953637-17.819854-18.020155-46.610574 0-64.429405s47.210166-17.819854 65.097286-0.066515l368.641064 350.141612L880.101759 163.84343130000002 880.101759 163.84343130000002z"  horiz-adv-x="1024" />

    
    <glyph glyph-name="lajitong" unicode="&#58882;" d="M929.56626489 709.78041679H104.37578903c-19.88410785 0-33.14017975 13.2560719-33.14017975 33.14017974s13.2560719 33.14017975 33.14017975 33.14017977h825.19047586c19.88410785 0 33.14017975-13.2560719 33.14017975-33.14017977s-16.57008987-33.14017975-33.14017975-33.14017974zM684.32893472 709.78041679H336.35704731c-19.88410785 0-33.14017975 13.2560719-33.14017976 33.14017974V815.828992c0 19.88410785 13.2560719 33.14017975 33.14017976 33.14017974h351.28590538c19.88410785 0 33.14017975-13.2560719 33.14017976-33.14017974v-72.90839547c-3.31401797-19.88410785-16.57008987-33.14017975-36.45419773-33.14017974z m-314.83170766 66.28035951h285.00554588v6.62803594h-285.00554588v-6.62803594zM710.84107852-59.07175348999999H303.21686755c-76.22241343 0-139.18875497 62.96634153-139.18875496 139.18875496v662.80359506c0 19.88410785 13.2560719 33.14017975 33.14017976 33.14017977h616.4073434c19.88410785 0 33.14017975-13.2560719 33.14017975-33.14017977v-662.80359506c3.31401797-76.22241343-59.65232355-139.18875497-135.87473698-139.18875496zM233.62249008 709.78041679v-629.66341532c0-39.7682157 33.14017975-72.90839547 72.90839545-72.90839545H710.84107852c39.7682157 0 72.90839547 33.14017975 72.90839545 72.90839545v629.66341532H233.62249008zM336.35704731 255.75995416c-19.88410785 0-33.14017975 13.2560719-33.14017976 33.14017976v198.84107851c0 19.88410785 13.2560719 33.14017975 33.14017976 33.14017976s33.14017975-13.2560719 33.14017975-33.14017976v-198.84107851c0-16.57008987-16.57008987-33.14017975-33.14017975-33.14017976zM661.13080889 259.07397214c-19.88410785 0-33.14017975 13.2560719-33.14017975 33.14017976v198.84107851c0 19.88410785 13.2560719 33.14017975 33.14017975 33.14017975s33.14017975-13.2560719 33.14017975-33.14017975v-198.84107851c0-16.57008987-13.2560719-33.14017975-33.14017975-33.14017976zM512 199.42164858c-19.88410785 0-33.14017975 13.2560719-33.14017975 33.14017977v321.45974359c0 19.88410785 13.2560719 33.14017975 33.14017975 33.14017976s33.14017975-13.2560719 33.14017975-33.14017976v-321.45974359c0-19.88410785-16.57008987-33.14017975-33.14017975-33.14017977z"  horiz-adv-x="1024" />

    
    <glyph glyph-name="xiangyou" unicode="&#59016;" d="M255.47449697-28.15536007000003c0 12.30726383 4.83828107 24.62372641 14.27569027 33.94155738l386.01392219 378.30578472-386.01392219 378.18620824c-18.39190787 18.46089487-18.50228739 48.29083223-0.25295281 66.88970282 18.25393395 18.60346816 48.07467438 19.05878251 66.88510345 1.0210064l420.5441667-412.02658488a47.53657675 47.53657675 0 0 0 0-67.90151045l-420.5441667-412.38531605a47.53657675 47.53657675 0 0 0-80.90784091 33.95995308v0.00919874z"  horiz-adv-x="1024" />

    
    <glyph glyph-name="xiangyou2" unicode="&#59633;" d="M967.111111 384c0-251.363556-203.747556-455.111111-455.111111-455.111111S56.888889 132.63644399999998 56.888889 384 260.636444 839.111111 512 839.111111s455.111111-203.747556 455.111111-455.111111z m-56.888889 0c0 219.932444-178.289778 398.222222-398.222222 398.222222S113.777778 603.932444 113.777778 384s178.289778-398.222222 398.222222-398.222222 398.222222 178.289778 398.222222 398.222222z m-267.776 28.444444l-150.556444 150.556445a28.444444 28.444444 0 0 0 40.220444 40.220444l199.111111-199.111111a28.444444 28.444444 0 0 0 0-40.220444l-199.111111-199.111111a28.444444 28.444444 0 0 0-40.220444 40.220444L642.446222 355.555556H312.888889a28.444444 28.444444 0 0 0 0 56.888888h329.557333z"  horiz-adv-x="1024" />

    
    <glyph glyph-name="xiangyou1" unicode="&#59641;" d="M967.111111 384c0-251.363556-203.747556-455.111111-455.111111-455.111111S56.888889 132.63644399999998 56.888889 384 260.636444 839.111111 512 839.111111s455.111111-203.747556 455.111111-455.111111z m-56.888889 0c0 219.932444-178.289778 398.222222-398.222222 398.222222S113.777778 603.932444 113.777778 384s178.289778-398.222222 398.222222-398.222222 398.222222 178.289778 398.222222 398.222222z m-475.221333 179.000889a28.444444 28.444444 0 0 0 40.220444 40.220444l199.111111-199.111111a28.444444 28.444444 0 0 0 0-40.220444l-199.111111-199.111111a28.444444 28.444444 0 0 0-40.220444 40.220444L614.001778 384l-179.000889 179.000889z"  horiz-adv-x="1024" />

    
    <glyph glyph-name="kefu" unicode="&#58881;" d="M205.8 485.00000001c42.4 133.9 167.8 231.2 315.6 231.2 147.7 0 273.1-97.3 315.6-231.2h55C847.8 648.40000001 698.4 769.00000001 521.3 769.00000001c-177 0-326.4-120.6-370.5-284h55zM185.1 123.20000001000005h-1.4c-79.6 0-144.3 64.7-144.3 144.3v82.8c0 79.6 64.7 144.3 144.3 144.3h1.3c38.8 0 70.3-31.5 70.3-70.3v-230.9c0-38.7-31.5-70.2-70.2-70.2z m-1.4 315.7c-48.8 0-88.5-39.7-88.5-88.5v-82.8c0-48.8 39.7-88.5 88.5-88.5h1.4c7.9 0 14.4 6.5 14.4 14.4V424.40000001c0 8-6.5 14.5-14.5 14.5h-1.3zM855.5 123.20000001000005h-1.4c-38.7 0-70.2 31.5-70.2 70.2v231c0 38.8 31.5 70.3 70.3 70.3h1.3c79.6 0 144.3-64.7 144.3-144.3v-82.8c0.1-79.6-64.7-144.4-144.3-144.4z m-1.3 315.7c-8 0-14.5-6.5-14.5-14.5v-230.9c0-7.9 6.5-14.4 14.4-14.4h1.4c48.8 0 88.5 39.7 88.5 88.5v82.8c0 48.8-39.7 88.5-88.5 88.5h-1.3zM569.7-26.499999989999992h-5.1c-15.4 0.2-27.7 12.9-27.5 28.3 0.2 15.3 12.7 27.5 27.9 27.5h0.4c165.4-2.4 264.9 136.4 265.9 137.8 8.9 12.6 26.3 15.6 38.9 6.8 12.6-8.8 15.7-26.2 6.9-38.8-4.8-6.6-115.3-161.6-307.4-161.6z"  horiz-adv-x="1024" />

    
    <glyph glyph-name="shiwu" unicode="&#58932;" d="M546.41428614 580.84285752c25.82142891-17.57142862 106.71428584-6.08571387 162.7499997 41.65714248 27.32142832 23.27142832 43.86428613 63.92142862 42.21428554 98.82857109-1.30714277 28.24285693-12.17142862 50.07857167-30.15 62.31428614-10.90714307 7.41428613-24.34285723 11.27142862-39.57857138 11.27142861-10.05000029 0-20.76428584-1.67142832-31.82142832-5.05714306-35.39999971-10.84285723-67.07142862-33.87857168-86.95714306-65.05714249-34.88571386-54.62142891-32.67857109-132.94285752-16.45714249-143.95714277zM639.50000029 823.60714277a144.29999971 144.29999971 0 0 0 42.14999971 6.62142832c22.11428584 0 42.49285752-5.89285722 59.42142862-17.39999971 27.72857109-18.85714278 43.75714307-51.08571386 45.57857167-89.87142831 2.12142833-45.51428584-18.72857109-96.77142862-54.60000029-127.32857139-67.32857109-57.34285752-165.36428613-71.27142891-205.49999971-43.9714292-34.65 23.57142891-37.45714307 123.19285693 6.57857109 192.15 24.55714248 38.44285752 63.19285752 66.57857138 106.37142891 79.80000029z m-326.1214292-198.85714277c54.21428614-46.17857109 132.42857168-57.27857168 157.28571475-40.39285693 15.42857168 10.50000029 17.57142862 86.18571387-16.13571416 138.96428555-19.24285693 30.10714278-49.86428555 52.41428613-84.08571416 62.87142831a105.34285723 105.34285723 0 0 1-30.70714307 4.90714278c-14.67857109 0-27.62142891-3.72857168-38.10000059-10.86428584-17.29285752-11.76428584-27.74999971-32.78571416-29.03571386-60.04285664-1.56428613-33.68571416 14.42142862-72.96428584 40.77857109-95.44285723z m-31.58571357 184.67142891c16.52142833 11.25 36.38571416 16.97142833 57.94285693 16.97142832 13.28571387 0 27.08571445-2.16428555 41.03571446-6.42857168 42.00000029-12.85714248 79.60714278-40.24285752 103.5-77.65714248 42.85714307-67.11428584 40.11428584-164.07857109 6.21428554-187.11428555-39.12857138-26.63571445-134.50714278-13.07142862-199.99285752 42.68571416-34.92857109 29.76428584-55.19999971 79.65-53.14285722 123.96428525 1.75714278 37.77857138 17.39999971 69.19285693 44.44285781 87.57857198zM104.85714307 534.00000029v-107.14285722h814.28571386v107.14285722H104.85714307z m0 42.85714219h814.28571386a42.85714307 42.85714307 0 0 0 42.85714307-42.85714219v-107.14285722a42.85714307 42.85714307 0 0 0-42.85714307-42.85714307H104.85714307a42.85714307 42.85714307 0 0 0-42.85714307 42.85714307v107.14285722a42.85714307 42.85714307 0 0 0 42.85714307 42.85714219zM169.14285722 384v-299.99999971a107.14285722 107.14285722 0 0 1 107.14285723-107.14285722h471.4285711a107.14285722 107.14285722 0 0 1 107.14285722 107.14285722V384H169.14285722z m-21.42857108 42.85714307h728.57142772a21.42857109 21.42857109 0 0 0 21.42857198-21.42857198v-321.4285708a150.00000029 150.00000029 0 0 0-150.00000029-150.00000029H276.28571445a150.00000029 150.00000029 0 0 0-150.00000029 150.00000029V405.42857109a21.42857109 21.42857109 0 0 0 21.42857198 21.42857198zM512 255.42857168v-300.00000059l21.42857109 21.42857198h-42.85714218l21.42857109-21.42857198V255.42857168z m0 0V555.42857138l-21.42857109-21.42857109h42.85714218l-21.42857109 21.42857109v-299.9999997z m-21.42857109 299.9999997h42.85714218v-600.00000029h-42.85714218V555.42857138z"  horiz-adv-x="1024" />

    
    <glyph glyph-name="youxiang" unicode="&#59064;" d="M872 54H152a90.1021875 90.1021875 0 0 0-90 90V624a90.1021875 90.1021875 0 0 0 90 90h720a90.1021875 90.1021875 0 0 0 90-90v-480a90.1021875 90.1021875 0 0 0-90-90zM152 654a30.03375 30.03375 0 0 1-30-30v-480a30.03375 30.03375 0 0 1 30-30h720a30.03375 30.03375 0 0 1 30 30V624a30.03375 30.03375 0 0 1-30 30zM512 354a29.9934375 29.9934375 0 0 0-11.8171875 2.4253125l-420 180a30 30 0 0 0 23.634375 55.149375L512 416.6390625l408.1828125 174.935625a30 30 0 0 0 23.634375-55.149375l-420-180A29.9934375 29.9934375 0 0 0 512 354z"  horiz-adv-x="1024" />

    
    <glyph glyph-name="kejian" unicode="&#58948;" d="M512 64c-155.2 0-297.6 96-424 284.8-14.4 22.4-14.4 49.6 0 72C214.4 608 356.8 704 512 704s297.6-96 424-284.8c14.4-22.4 14.4-49.6 0-72C809.6 160 667.2 64 512 64z m0 576c-132.8 0-257.6-86.4-371.2-256C256 214.39999999999998 380.8 128 512 128s257.6 86.4 371.2 256C769.6 553.6 644.8 640 512 640zM512 256c-70.4 0-128 57.6-128 128s57.6 128 128 128 128-57.6 128-128-57.6-128-128-128z m0 192c-35.2 0-64-28.8-64-64s28.8-64 64-64 64 28.8 64 64-28.8 64-64 64z"  horiz-adv-x="1024" />

    


  </font>
</defs>
</svg>
